<?xml version="1.0" standalone="no"?>
<!DOCTYPE svg PUBLIC "-//W3C//DTD SVG 20010904//EN"
 "http://www.w3.org/TR/2001/REC-SVG-20010904/DTD/svg10.dtd">
<svg version="1.0" xmlns="http://www.w3.org/2000/svg"
 width="131.000000pt" height="131.000000pt" viewBox="0 0 131.000000 131.000000"
 preserveAspectRatio="xMidYMid meet">
<metadata>
Created by potrace 1.11, written by Peter Selinger 2001-2013
</metadata>
<g transform="translate(0.000000,131.000000) scale(0.100000,-0.100000)"
fill="#000000" stroke="none">
<path d="M548 970 c-52 -28 -96 -85 -109 -146 -13 -59 -7 -104 21 -156 l19
-36 -33 -20 c-18 -11 -46 -37 -62 -58 -29 -37 -29 -39 -32 -190 -3 -143 -2
-154 17 -173 23 -23 61 -27 92 -11 18 10 19 7 19 -85 0 -57 4 -95 10 -95 6 0
10 47 10 120 l0 120 60 0 c33 0 60 4 60 10 0 6 -27 10 -60 10 l-60 0 0 120 c0
73 -4 120 -10 120 -6 0 -10 -32 -10 -75 l0 -75 -55 0 -55 0 0 65 c0 82 25 135
81 172 36 24 43 25 62 13 87 -55 172 -60 254 -15 l53 28 40 -27 c55 -36 80
-89 80 -171 l0 -65 -55 0 -55 0 0 75 c0 43 -4 75 -10 75 -6 0 -10 -47 -10
-120 l0 -120 -60 0 c-33 0 -60 -4 -60 -10 0 -6 27 -10 60 -10 l60 0 0 -120 c0
-73 4 -120 10 -120 6 0 10 38 10 95 0 92 1 95 19 85 31 -16 69 -12 91 10 18
18 20 33 20 161 0 109 -4 149 -16 175 -15 32 -59 76 -98 99 -15 9 -15 13 4 50
17 32 21 54 18 112 -3 60 -8 78 -33 114 -43 61 -102 89 -184 89 -45 -1 -78 -7
-103 -20z m215 -33 c101 -77 118 -202 40 -288 -48 -53 -87 -72 -149 -72 -93 0
-169 61 -194 155 -22 79 24 178 101 217 62 31 152 26 202 -12z"/>
<path d="M667 903 c-17 -16 -5 -45 21 -54 15 -5 32 -19 37 -32 13 -30 55 -36
55 -8 0 12 -9 26 -20 33 -11 7 -20 18 -20 25 0 24 -57 52 -73 36z"/>
<path d="M568 489 c-15 -8 -18 -24 -18 -92 0 -51 5 -88 12 -95 16 -16 170 -16
186 0 7 7 12 43 12 93 0 50 -5 86 -12 93 -15 15 -156 16 -180 1z m166 -25 c3
-9 6 -41 6 -72 l0 -57 -85 0 -85 0 0 61 c0 33 5 65 12 72 7 7 40 12 79 12 52
0 68 -4 73 -16z m-47 -151 c-20 -2 -52 -2 -70 0 -17 2 0 4 38 4 39 0 53 -2 32
-4z"/>
<path d="M596 455 c-11 -12 -14 -21 -7 -29 6 -7 6 -18 1 -25 -12 -20 -1 -41
20 -41 25 0 33 15 21 38 -7 13 -7 22 2 31 8 8 7 15 -4 27 -15 14 -18 14 -33
-1z"/>
<path d="M650 440 c0 -5 18 -10 40 -10 22 0 40 5 40 10 0 6 -18 10 -40 10 -22
0 -40 -4 -40 -10z"/>
<path d="M650 410 c0 -5 15 -10 34 -10 19 0 38 5 41 10 4 6 -10 10 -34 10 -23
0 -41 -4 -41 -10z"/>
<path d="M650 380 c0 -5 15 -10 34 -10 19 0 38 5 41 10 4 6 -10 10 -34 10 -23
0 -41 -4 -41 -10z"/>
<path d="M650 125 c0 -77 4 -125 10 -125 6 0 10 48 10 125 0 77 -4 125 -10
125 -6 0 -10 -48 -10 -125z"/>
<path d="M520 10 c-11 -7 4 -10 50 -10 46 0 61 3 50 10 -19 13 -81 13 -100 0z"/>
<path d="M690 10 c-11 -7 4 -10 50 -10 46 0 61 3 50 10 -19 13 -81 13 -100 0z"/>
</g>
</svg>
